<svg width="38" height="30" viewBox="0 0 38 30" fill="none" xmlns="http://www.w3.org/2000/svg">
<path d="M34.8333 0.75H11.0833C9.99083 0.75 9.13583 1.30417 8.56583 2.14333L0 15L8.56583 27.8408C9.13583 28.68 9.99083 29.25 11.0833 29.25H34.8333C36.575 29.25 38 27.825 38 26.0833V3.91667C38 2.175 36.575 0.75 34.8333 0.75ZM30.0833 20.6842L27.8508 22.9167L22.1667 17.2325L16.4825 22.9167L14.25 20.6842L19.9342 15L14.25 9.31583L16.4825 7.08333L22.1667 12.7675L27.8508 7.08333L30.0833 9.31583L24.3992 15L30.0833 20.6842Z" fill="#0A18A3"/>
</svg>
